<?xml version="1.0" standalone="no"?>
<!DOCTYPE svg PUBLIC "-//W3C//DTD SVG 20010904//EN"
 "http://www.w3.org/TR/2001/REC-SVG-20010904/DTD/svg10.dtd">
<svg version="1.0" xmlns="http://www.w3.org/2000/svg"
 width="4158.000000pt" height="1894.000000pt" viewBox="0 0 4158.000000 1894.000000"
 preserveAspectRatio="xMidYMid meet">
<metadata>
Created by potrace 1.16, written by Peter Selinger 2001-2019
</metadata>
<g transform="translate(0.000000,1894.000000) scale(0.100000,-0.100000)"
fill="#000000" stroke="none">
<path d="M9190 16519 c-1635 -68 -3211 -576 -4575 -1474 -706 -465 -1335
-1034 -1836 -1660 -862 -1078 -1380 -2333 -1513 -3670 -108 -1074 49 -2170
455 -3187 521 -1303 1412 -2421 2669 -3347 1270 -935 2671 -1473 4210 -1616
845 -78 1852 -13 2757 180 2461 525 4285 1702 5387 3475 422 678 742 1442 955
2275 182 716 238 1435 170 2186 l-12 126 -461 5 c-253 3 -591 2 -751 -2 -373
-9 -449 2 -534 83 -69 66 -97 130 -155 352 -353 1341 -1271 2581 -2526 3410
-623 412 -1347 720 -2043 870 -216 46 -617 105 -724 105 l-33 0 0 -4705 0
-4705 370 0 370 0 0 4246 0 4247 73 -7 c473 -45 1036 -268 1577 -628 1060
-705 1928 -1799 2165 -2728 36 -143 55 -270 62 -422 l6 -138 -1606 0 -1607 0
0 -390 0 -390 1687 0 1686 0 -6 -172 c-25 -738 -273 -1479 -777 -2323 -60 -99
-107 -181 -105 -183 8 -8 335 -31 445 -32 206 0 311 32 406 122 100 94 182
262 299 612 115 343 183 617 340 1361 105 497 115 534 161 585 60 66 96 74
307 66 221 -9 624 -39 633 -48 8 -9 -13 -407 -32 -588 -76 -736 -264 -1387
-589 -2045 -708 -1433 -1932 -2593 -3471 -3290 -856 -388 -1752 -619 -2764
-711 -235 -21 -935 -30 -1197 -15 -1834 107 -3502 765 -4767 1879 -255 224
-617 602 -851 887 -1223 1491 -1703 3248 -1364 4995 223 1145 799 2273 1644
3218 148 166 448 461 605 596 1236 1062 2799 1659 4792 1831 778 67 1459 17
2208 -161 701 -167 1520 -496 2250 -905 414 -232 545 -283 845 -336 147 -25
583 -25 793 1 83 10 152 22 151 25 -2 18 -282 263 -417 364 -1631 1227 -3692
1863 -5762 1776z"/>
<path d="M8510 8545 c0 -4394 0 -4395 -20 -4395 -11 0 -86 9 -168 21 -1024
143 -1996 591 -2877 1325 -151 126 -459 425 -583 567 -291 332 -551 721 -720
1077 -242 512 -378 1030 -433 1645 -10 108 -12 479 -5 810 l1 70 -115 17
c-175 25 -328 33 -387 19 -65 -16 -108 -58 -129 -125 -23 -73 -29 -374 -15
-751 22 -596 64 -851 212 -1303 608 -1849 1925 -3104 3994 -3808 474 -162 716
-213 1380 -294 331 -40 526 -66 578 -76 l27 -6 0 4801 0 4801 -370 0 -370 0 0
-4395z"/>
<path d="M26335 12679 c-784 -43 -1511 -331 -2132 -846 -113 -94 -353 -333
-444 -443 -479 -576 -762 -1248 -840 -1995 -18 -172 -15 -586 5 -775 96 -898
440 -1654 1026 -2254 575 -589 1295 -941 2165 -1057 145 -20 216 -23 480 -24
196 0 349 5 415 13 854 105 1574 446 2169 1027 602 588 962 1315 1073 2170 21
160 17 744 -5 920 -64 489 -176 868 -378 1275 -542 1090 -1569 1806 -2819
1964 -116 15 -476 37 -545 34 -16 0 -93 -4 -170 -9z m585 -555 c707 -79 1358
-392 1860 -894 503 -503 810 -1133 917 -1880 25 -179 25 -674 0 -845 -70 -469
-229 -890 -479 -1265 -119 -179 -201 -282 -343 -429 -686 -712 -1680 -1062
-2685 -945 -1195 139 -2187 943 -2570 2086 -285 851 -204 1795 222 2563 465
839 1267 1418 2193 1584 285 51 579 59 885 25z"/>
<path d="M36867 12569 c-70 -159 -38 20 -622 -3539 -171 -1043 -285 -1743
-430 -2645 l-124 -770 24 -52 c25 -56 94 -132 143 -157 16 -8 58 -20 93 -25
165 -26 265 50 313 236 9 33 79 485 156 1004 77 519 172 1151 210 1404 119
785 444 2835 450 2835 3 0 196 -433 430 -961 234 -529 429 -961 434 -961 7 0
653 1493 802 1852 3 8 21 -41 40 -110 23 -87 96 -515 239 -1400 585 -3636 586
-3640 616 -3735 16 -52 32 -80 63 -111 53 -54 112 -64 231 -39 88 19 236 63
248 75 6 5 -1138 7059 -1146 7067 -1 0 -26 3 -56 5 l-55 3 -490 -1127 c-270
-620 -493 -1124 -498 -1120 -4 4 -237 525 -519 1157 -281 633 -515 1154 -520
1159 -4 5 -19 -15 -32 -45z"/>
<path d="M22905 12583 c-1014 -88 -1766 -403 -2345 -983 -408 -408 -758 -999
-959 -1623 -114 -353 -164 -667 -164 -1032 0 -381 53 -695 178 -1055 190 -546
580 -1156 983 -1538 624 -592 1320 -890 2226 -953 135 -9 170 -9 176 1 20 33
54 231 55 317 0 84 -2 94 -25 118 -47 51 -96 67 -332 110 -1286 235 -2118 901
-2493 1995 -126 369 -179 688 -179 1085 0 683 194 1286 582 1804 103 139 368
408 502 511 424 325 884 528 1500 660 107 23 223 53 258 67 79 32 155 99 178
158 23 61 16 195 -16 293 -27 80 -16 75 -125 65z"/>
<path d="M34022 12513 c-10 -21 -232 -529 -493 -1130 -261 -600 -476 -1090
-479 -1088 -3 2 -230 508 -505 1125 l-500 1122 -57 -4 c-32 -2 -59 -6 -61 -9
-4 -4 -1158 -7076 -1157 -7090 0 -4 37 -17 83 -30 63 -18 107 -23 192 -23 125
0 158 10 224 70 97 87 119 160 181 608 110 784 350 2374 531 3511 60 380 125
794 145 920 38 242 43 255 93 255 25 0 46 -45 426 -910 220 -500 404 -909 408
-907 5 1 188 421 407 932 219 512 402 936 407 944 14 22 80 -354 253 -1444
387 -2428 571 -3566 601 -3712 24 -115 70 -216 112 -247 38 -28 142 -33 228
-12 57 15 228 74 238 82 2 2 -257 1594 -575 3538 l-579 3536 -52 0 c-51 0 -53
-1 -71 -37z"/>
<path d="M20883 4195 c-87 -24 -154 -64 -223 -134 -110 -111 -157 -246 -146
-413 13 -201 115 -359 280 -437 154 -73 369 -69 517 10 77 41 172 141 209 221
30 65 58 202 47 232 -6 15 -29 16 -214 14 l-208 -3 -3 -42 -3 -43 166 0 165 0
-6 -27 c-23 -104 -119 -225 -219 -274 -219 -108 -494 -23 -595 185 -88 181
-51 388 94 524 80 75 148 103 265 110 149 8 252 -29 349 -127 53 -54 54 -55
80 -39 47 29 40 58 -28 122 -108 100 -209 136 -375 135 -55 0 -124 -7 -152
-14z"/>
<path d="M22217 4204 c-4 -4 -7 -236 -7 -516 l0 -508 255 0 255 0 0 45 0 45
-210 0 -210 0 0 210 0 210 211 0 210 0 -3 48 -3 47 -207 3 -208 2 0 160 0 160
211 0 210 0 -3 48 -3 47 -246 3 c-135 1 -248 -1 -252 -4z"/>
<path d="M23322 4198 c-13 -13 -16 -47 -6 -72 5 -13 25 -16 110 -16 l104 0 2
-462 3 -463 45 0 45 0 3 462 2 462 108 3 107 3 3 39 c2 24 -2 42 -10 47 -22
14 -502 11 -516 -3z"/>
<path d="M25402 4198 c-13 -13 -16 -47 -6 -72 5 -13 25 -16 110 -16 l104 0 2
-462 3 -463 45 0 45 0 3 462 2 462 108 3 107 3 3 39 c2 24 -2 42 -10 47 -22
14 -502 11 -516 -3z"/>
<path d="M26537 4204 c-4 -4 -7 -236 -7 -516 l0 -508 45 0 45 0 0 255 0 255
255 0 255 0 0 -255 0 -255 45 0 45 0 -2 513 -3 512 -40 0 -40 0 -3 -207 -2
-208 -255 0 -255 0 -2 208 -3 207 -35 3 c-20 2 -39 0 -43 -4z"/>
<path d="M27867 4204 c-4 -4 -7 -236 -7 -516 l0 -508 255 0 255 0 0 45 0 45
-210 0 -210 0 0 210 0 210 211 0 210 0 -3 48 -3 47 -207 3 -208 2 0 160 0 160
208 2 207 3 0 45 0 45 -246 3 c-135 1 -248 -1 -252 -4z"/>
<path d="M30197 4204 c-4 -4 -7 -198 -7 -431 0 -343 -3 -430 -14 -458 -26 -62
-89 -74 -138 -25 -34 35 -47 37 -78 12 -31 -25 -21 -63 27 -99 30 -23 48 -28
107 -31 61 -3 76 -1 105 20 19 13 44 39 55 58 20 34 21 49 21 495 l0 460 -35
3 c-20 2 -39 0 -43 -4z"/>
<path d="M31321 4194 c-129 -34 -265 -146 -317 -258 -79 -172 -66 -399 30
-550 66 -104 191 -189 314 -215 126 -26 279 -8 392 46 73 35 177 141 213 216
75 155 74 358 -2 512 -57 115 -184 215 -316 250 -74 19 -241 19 -314 -1z m298
-93 c161 -50 263 -172 291 -345 30 -193 -63 -381 -225 -458 -281 -131 -594 27
-635 320 -31 221 87 418 286 482 80 26 203 26 283 1z"/>
<path d="M32698 4204 c-5 -4 -8 -236 -8 -516 l0 -509 218 3 c213 3 218 3 268
30 63 33 136 113 152 166 21 68 15 180 -12 237 -26 58 -88 117 -139 136 l-36
13 29 33 c48 55 64 158 38 247 -16 52 -90 127 -143 144 -45 15 -356 29 -367
16z m342 -114 c59 -30 85 -73 85 -142 0 -62 -17 -94 -69 -132 -24 -18 -45 -21
-152 -24 l-124 -4 0 161 0 161 110 0 c91 0 118 -4 150 -20z m85 -419 c47 -22
99 -74 114 -114 30 -79 2 -183 -64 -233 -59 -45 -98 -53 -252 -54 l-143 0 0
210 0 210 153 0 c127 0 159 -4 192 -19z"/>
<path d="M34937 4203 c-4 -3 -7 -235 -7 -515 l0 -508 213 0 c284 0 346 18 455
134 93 98 136 215 136 371 1 167 -41 282 -142 387 -70 74 -151 115 -252 128
-85 11 -393 13 -403 3z m470 -115 c118 -44 216 -182 232 -328 22 -206 -59
-377 -216 -455 -56 -29 -63 -30 -230 -33 l-173 -4 0 421 0 421 165 0 c144 0
171 -3 222 -22z"/>
<path d="M36771 4194 c-129 -34 -265 -146 -317 -258 -79 -172 -66 -399 30
-550 66 -104 191 -189 314 -215 126 -26 279 -8 392 46 73 35 177 141 213 216
75 155 74 358 -2 512 -57 115 -184 215 -316 250 -74 19 -241 19 -314 -1z m298
-93 c161 -50 263 -172 291 -345 30 -193 -63 -381 -225 -458 -281 -131 -594 27
-635 320 -31 221 87 418 286 482 80 26 203 26 283 1z"/>
<path d="M38145 4199 c-3 -8 -4 -241 -3 -519 l3 -505 40 0 40 0 5 401 5 400
353 -408 c194 -224 359 -408 367 -408 13 0 15 71 15 520 l0 520 -45 0 -45 0
-2 -411 -3 -412 -343 404 c-189 222 -352 410 -363 418 -16 11 -20 11 -24 0z"/>
<path d="M39617 4204 c-4 -4 -7 -236 -7 -516 l0 -508 255 0 255 0 0 45 0 45
-210 0 -210 0 0 210 0 210 211 0 210 0 -3 48 -3 47 -207 3 -208 2 0 160 0 160
208 2 207 3 0 45 0 45 -246 3 c-135 1 -248 -1 -252 -4z"/>
<path d="M20114 3786 c-29 -29 -34 -41 -34 -81 0 -40 5 -52 34 -81 40 -40 92
-46 142 -15 67 41 67 151 1 191 -51 32 -103 26 -143 -14z"/>
<path d="M40455 3811 c-42 -18 -60 -50 -60 -107 0 -45 4 -58 28 -81 23 -24 36
-28 82 -28 46 0 59 4 82 28 24 23 28 36 28 82 0 46 -4 59 -26 81 -29 28 -97
41 -134 25z"/>
</g>
</svg>
