<?xml version="1.0" standalone="no"?>
<!DOCTYPE svg PUBLIC "-//W3C//DTD SVG 20010904//EN"
 "http://www.w3.org/TR/2001/REC-SVG-20010904/DTD/svg10.dtd">
<svg version="1.0" xmlns="http://www.w3.org/2000/svg"
 width="1799.000000pt" height="768.000000pt" viewBox="0 0 1799.000000 768.000000"
 preserveAspectRatio="xMidYMid meet">
<metadata>
Created by potrace 1.16, written by Peter Selinger 2001-2019
</metadata>
<g transform="translate(0.000000,768.000000) scale(0.100000,-0.100000)"
fill="#000000" stroke="none">
<path d="M0 3840 l0 -3840 8995 0 8995 0 0 3840 0 3840 -8995 0 -8995 0 0
-3840z m4625 3109 c541 -59 1048 -225 1530 -502 257 -148 564 -382 536 -410
-7 -7 -81 -11 -203 -11 -228 -1 -287 10 -430 84 -411 210 -506 256 -641 308
-434 170 -845 245 -1247 227 -144 -6 -432 -36 -542 -55 -32 -5 -82 -14 -110
-19 -248 -43 -552 -133 -786 -232 -612 -261 -1085 -674 -1428 -1251 -376 -632
-482 -1332 -305 -2004 85 -321 272 -688 499 -980 590 -760 1459 -1198 2489
-1256 742 -41 1479 141 2082 514 621 386 1088 979 1280 1627 58 193 89 386
106 644 l5 87 -47 1 c-27 1 -57 3 -68 4 -11 1 -72 6 -136 10 -172 11 -159 30
-245 -380 -52 -252 -144 -566 -195 -667 -30 -59 -76 -105 -124 -124 -37 -14
-68 -16 -170 -12 -69 3 -128 8 -131 11 -4 3 23 57 59 119 125 214 210 414 262
615 28 105 55 289 55 368 l0 55 -727 2 -728 3 -3 168 -2 167 695 0 695 0 0 49
c0 173 -98 436 -245 656 -341 510 -924 928 -1367 980 l-58 6 -2 -1833 -3
-1833 -160 0 -160 0 -3 2025 c-1 1114 0 2030 2 2036 7 19 246 -14 416 -58 446
-115 856 -349 1199 -683 334 -325 566 -705 682 -1119 17 -61 40 -127 51 -147
37 -67 47 -69 432 -69 l344 0 6 -27 c3 -16 9 -111 12 -213 14 -387 -52 -747
-215 -1177 -430 -1135 -1396 -1864 -2791 -2107 -234 -41 -362 -51 -675 -51
-199 0 -347 5 -415 13 -589 75 -1084 255 -1564 569 -850 557 -1370 1321 -1516
2228 -27 166 -37 517 -21 695 88 957 632 1812 1506 2367 749 476 1626 679
2520 582z m-567 -3603 l2 -2078 -32 5 c-18 3 -94 13 -168 22 -325 39 -426 59
-645 131 -701 231 -1215 624 -1534 1176 -112 192 -219 465 -266 672 -43 194
-57 636 -23 712 16 34 66 47 148 39 39 -4 82 -10 96 -14 l26 -7 -1 -169 c-6
-726 284 -1289 896 -1741 324 -240 702 -400 1081 -457 l92 -14 0 1897 c0 1043
3 1900 7 1904 4 3 77 5 162 4 l156 -3 3 -2079z m7802 1948 c577 -80 1051 -460
1253 -1004 130 -350 141 -756 31 -1090 -158 -476 -531 -851 -1006 -1010 -162
-54 -267 -72 -464 -77 -139 -4 -206 -1 -290 12 -396 60 -754 259 -988 549
-170 210 -271 422 -333 698 -25 115 -27 139 -27 353 0 201 2 242 22 328 125
559 503 988 1035 1176 235 83 486 104 767 65z m4435 -481 c114 -258 215 -483
224 -500 l16 -33 209 483 c115 265 214 485 220 489 37 26 45 -2 101 -343 31
-184 69 -415 85 -514 16 -99 47 -290 69 -425 57 -345 135 -828 176 -1075 19
-115 50 -309 70 -430 19 -121 38 -232 41 -247 5 -24 1 -27 -43 -42 -116 -37
-164 -30 -189 30 -18 42 -24 72 -69 354 -72 450 -86 540 -115 715 -16 99 -46
281 -66 405 -66 418 -123 755 -132 784 -7 26 -26 -14 -178 -368 -94 -219 -174
-398 -180 -397 -8 0 -169 354 -320 704 -26 59 -49 105 -52 103 -4 -4 -64 -373
-102 -621 -4 -33 -22 -150 -39 -260 -17 -110 -38 -243 -46 -295 -8 -52 -23
-151 -34 -220 -11 -69 -32 -206 -46 -305 -84 -576 -89 -601 -131 -634 -56 -44
-158 -16 -190 53 -18 36 -19 20 31 331 8 50 30 187 50 305 19 118 57 352 84
520 28 168 75 458 106 645 190 1158 208 1255 235 1255 4 0 101 -210 215 -467z
m-6207 418 c17 -54 15 -112 -4 -139 -21 -30 -77 -57 -149 -72 -620 -125 -1005
-475 -1122 -1020 -26 -120 -26 -429 0 -550 90 -420 314 -722 671 -902 116 -58
267 -110 386 -133 241 -46 248 -52 218 -198 l-13 -60 -100 6 c-418 23 -788
210 -1058 535 -136 163 -259 381 -320 567 -118 357 -86 726 93 1103 221 462
537 730 1004 848 106 27 259 51 337 53 45 1 46 0 57 -38z m4812 8 c0 -12 20
-145 45 -295 52 -318 116 -709 180 -1101 25 -153 68 -413 95 -578 27 -165 68
-412 90 -550 22 -137 50 -309 62 -382 12 -73 19 -135 16 -138 -13 -13 -120
-45 -151 -45 -37 0 -69 27 -86 73 -13 33 -69 373 -270 1632 -44 275 -87 532
-94 570 l-14 70 -25 -57 c-14 -31 -93 -212 -174 -402 -82 -190 -152 -346 -155
-346 -4 0 -33 60 -65 133 -243 555 -284 642 -298 645 -18 4 -19 -1 -47 -178
-11 -74 -27 -173 -34 -220 -27 -169 -97 -617 -110 -705 -7 -49 -23 -151 -34
-225 -28 -180 -99 -666 -111 -760 -25 -191 -85 -250 -227 -221 -31 6 -58 13
-61 15 -2 3 10 89 27 193 17 103 51 314 76 468 25 154 64 390 86 525 22 135
60 369 85 520 24 151 60 370 79 485 19 116 50 309 70 430 37 230 62 381 71
428 5 22 11 27 33 27 23 0 31 -7 43 -37 12 -30 188 -425 390 -875 12 -27 24
-48 27 -48 3 0 16 24 28 53 360 842 392 909 446 916 4 1 7 -9 7 -20z"/>
<path d="M11405 5060 c-33 -6 -100 -21 -149 -35 -492 -141 -861 -544 -963
-1053 -25 -124 -24 -383 1 -517 106 -565 531 -982 1101 -1081 114 -20 392 -14
505 11 181 40 352 112 503 212 94 62 281 248 344 343 208 312 275 668 197
1050 -91 442 -411 825 -828 990 -159 63 -262 81 -466 85 -102 2 -212 0 -245
-5z"/>
</g>
</svg>
